<?xml version="1.0" standalone="no"?>
<!DOCTYPE svg PUBLIC "-//W3C//DTD SVG 20010904//EN"
 "http://www.w3.org/TR/2001/REC-SVG-20010904/DTD/svg10.dtd">
<svg version="1.0" xmlns="http://www.w3.org/2000/svg"
 width="185.000000pt" height="185.000000pt" viewBox="0 0 185.000000 185.000000"
 preserveAspectRatio="xMidYMid meet">
<metadata>
Created by potrace 1.11, written by Peter Selinger 2001-2013
</metadata>
<g transform="translate(0.000000,185.000000) scale(0.100000,-0.100000)"
fill="#000000" stroke="none">
<path d="M840 1369 c-66 -6 -188 -36 -248 -62 l-33 -14 60 -91 c34 -51 63 -92
65 -92 3 0 17 5 33 11 59 23 154 36 240 33 196 -7 382 -102 506 -257 46 -57
112 -182 121 -228 2 -13 9 -44 15 -69 6 -25 11 -61 11 -81 0 -20 6 -39 13 -41
6 -2 55 -4 107 -4 l95 1 1 55 c1 100 -44 261 -103 369 -174 323 -515 504 -883
470z"/>
<path d="M273 1078 c-135 -140 -221 -337 -239 -545 l-6 -63 39 -1 c43 -1 165
-1 173 0 4 1 11 39 18 85 21 141 71 256 152 348 l39 45 -60 91 c-32 51 -60 92
-62 92 -1 0 -26 -24 -54 -52z"/>
<path d="M760 1075 c-7 -9 -10 -27 -7 -43 3 -15 2 -33 -1 -39 -13 -20 -29 0
-29 35 0 38 -15 57 -38 48 -12 -4 -16 -16 -14 -48 2 -26 -1 -43 -9 -46 -13 -4
-15 5 -12 54 1 21 -4 33 -15 38 -26 10 -35 -2 -35 -44 0 -35 -3 -40 -34 -51
l-34 -12 -8 -116 c-4 -64 -6 -123 -4 -131 7 -27 4 -184 -3 -212 -4 -16 -14
-28 -22 -28 -8 0 -15 -4 -15 -9 0 -8 23 -8 40 0 7 3 22 6 35 8 6 0 12 11 13
24 1 12 6 38 11 57 8 30 9 32 11 10 4 -44 3 -66 -4 -95 -7 -27 -6 -27 23 -22
18 4 31 2 31 -3 0 -6 7 -10 15 -10 9 0 15 6 14 13 -5 39 15 52 26 17 4 -13 15
-20 32 -20 20 0 23 3 15 13 -16 19 -15 124 1 187 11 39 15 47 16 27 1 -15 9
-55 18 -88 13 -49 14 -65 5 -80 -10 -16 -10 -21 3 -25 8 -4 21 -1 29 5 15 13
26 5 26 -21 0 -21 1 -22 35 -6 21 10 27 9 39 -7 18 -25 45 -13 42 19 -2 13 1
30 5 38 7 10 9 8 9 -5 0 -29 19 -57 34 -51 10 4 12 20 9 62 -2 31 -6 64 -9 72
-3 10 -2 12 4 5 6 -5 13 -28 16 -50 8 -59 15 -87 21 -94 4 -3 32 -6 64 -7 l57
-2 2 57 c2 31 4 65 6 76 2 11 7 53 11 93 4 40 10 70 14 67 3 -4 6 -52 7 -108
1 -129 9 -167 35 -167 15 0 18 4 12 15 -5 8 -5 54 -1 103 14 152 15 194 8 233
-5 26 -3 39 5 43 15 5 14 28 -4 79 -11 32 -20 41 -41 39 -3 0 -4 17 -2 39 3
31 0 40 -14 45 -11 3 -28 10 -38 16 -26 14 -57 -21 -50 -57 2 -14 0 -25 -5
-25 -18 0 -21 17 -8 49 10 27 9 33 -3 41 -20 13 -26 12 -44 -5 -11 -11 -12
-23 -5 -47 15 -52 -8 -50 -35 4 -7 12 -20 22 -29 22 -9 -1 -19 7 -23 18 -4 14
-13 18 -32 16 -25 -3 -27 -7 -25 -44 1 -29 -3 -43 -17 -52 -16 -10 -18 -7 -18
23 0 40 -8 56 -26 49 -7 -3 -19 2 -26 11 -16 19 -44 19 -60 0z m247 -457 c-3
-8 -6 -5 -6 6 -1 11 2 17 5 13 3 -3 4 -12 1 -19z"/>
</g>
</svg>
